<svg width="401" height="402" viewBox="0 0 401 402" fill="none" xmlns="http://www.w3.org/2000/svg">
<path d="M310.102 32.4124C311.237 33.202 312.372 33.991 313.508 34.7796C329.014 45.6294 329.014 45.6294 334.102 50.4124V52.4124H336.102V54.4124C336.693 54.678 337.285 54.9435 337.895 55.2171C365.625 70.2354 384.594 116.09 393.102 144.412C394.725 150.027 395.999 155.675 397.102 161.412L397.555 163.659C407.41 214.112 395.494 269.157 367.223 311.815C347.666 340.556 321.974 363.397 291.102 379.412C289.373 380.317 289.373 380.317 287.61 381.241C270.141 389.877 251.303 395.353 232.102 398.412C231.433 398.528 230.764 398.644 230.075 398.763C180.093 407.251 127.304 393.718 86.1642 364.662C39.7952 331.188 11.4941 282.478 2.1017 226.412C-5.84074 176.646 9.25523 123.142 38.4767 82.7249C42.8466 76.7963 47.6072 71.3348 52.672 65.9945C54.6305 63.9131 56.4782 61.8074 58.2892 59.5999C61.5474 55.7743 65.2363 52.6114 69.1017 49.4124C69.6028 48.9883 70.104 48.5642 70.6203 48.1273C135.551 -6.68801 238.842 -18.3929 310.102 32.4124ZM146.102 30.4124C145.477 30.605 144.853 30.7975 144.21 30.9959C114.672 40.1138 89.2088 58.1221 68.1017 80.4124C67.5023 81.0415 66.9029 81.6705 66.2853 82.3187C41.6232 109.327 27.58 144.467 23.1017 180.412C23.0082 181.099 22.9146 181.786 22.8183 182.494C17.187 226.951 31.6716 273.424 58.8175 308.77C88.0966 346.22 129.74 371.606 177.102 378.412C194.136 380.281 211.178 379.96 228.102 377.412C229.97 377.155 229.97 377.155 231.875 376.893C261.571 372.148 291.62 358.467 314.102 338.412C314.996 337.626 315.891 336.84 316.813 336.03C321.037 332.276 325.159 328.462 329.102 324.412C329.608 323.929 330.113 323.446 330.635 322.948C335.131 318.61 338.867 314.002 342.477 308.912C343.039 308.123 343.601 307.334 344.181 306.522C361.387 282.115 371.463 256.679 377.102 227.412C377.237 226.716 377.373 226.021 377.513 225.304C385.36 183.294 373.199 137.855 350.352 102.475C348.952 100.442 347.535 98.4215 346.102 96.4124C344.988 94.8481 344.988 94.8481 343.852 93.2523C327.165 70.6216 305.978 53.1727 281.102 40.4124C280.464 40.0787 279.827 39.745 279.17 39.4012C239.375 18.7477 188.275 16.5183 146.102 30.4124Z" fill="#0C3613"/>
<path d="M239.102 47.4117C240.165 47.7662 241.229 48.1207 242.324 48.486C272.603 59.1791 301.764 82.3709 316.102 111.412C321.004 123.014 323.241 133.706 323.352 146.224C323.366 147.444 323.366 147.444 323.38 148.688C323.355 153.321 322.87 157.054 321.102 161.412C289.799 162.164 262.553 154.864 239.218 132.979C221.017 115.305 209.63 90.6574 207.102 65.4117C207.076 63.4119 207.07 61.4115 207.102 59.4117C200.379 57.3262 193.636 55.4775 186.789 53.8492C185.942 53.641 185.094 53.4329 184.221 53.2184C172.635 50.45 161.268 49.0012 149.352 48.9742C148.111 48.9696 146.869 48.965 145.591 48.9603C133.794 49.0991 122.682 51.1754 111.277 54.0663C109.102 54.4117 109.102 54.4117 106.102 53.4117C149.293 34.6435 194.37 31.4179 239.102 47.4117Z" fill="#0B3613"/>
<path d="M182.102 77.4122C183.557 94.2292 176.282 112.594 165.723 125.557C165.188 126.169 164.653 126.781 164.102 127.412C163.412 128.22 162.722 129.029 162.012 129.861C153.686 139.382 145.093 146.119 134.102 152.412C133.166 152.95 132.23 153.487 131.266 154.041C125.233 157.277 119.041 159.579 112.539 161.662C111.772 161.909 111.005 162.155 110.215 162.409C101.564 165.061 93.6201 166.629 84.5275 166.15C83.8674 166.118 83.2073 166.086 82.5272 166.053C79.7957 165.918 77.0701 165.783 74.3457 165.541C69.7317 165.151 65.5999 165.076 61.1018 166.412C57.2536 170.273 55.2364 174.485 53.1018 179.412C52.6774 180.304 52.2531 181.196 51.8159 182.116C50.7339 184.48 49.7742 186.857 48.8518 189.287C48.5202 190.143 48.1887 190.999 47.8471 191.881C42.7123 205.416 40.1318 219.125 38.1018 233.412H37.1018C36.2501 190.869 36.2501 190.869 41.1018 175.412C41.3378 174.64 41.5739 173.869 41.8171 173.073C49.2778 149.397 61.9864 129.195 79.1018 111.412C79.9545 110.465 79.9545 110.465 80.8244 109.498C104.999 83.4074 147.388 69.8788 182.102 77.4122Z" fill="#0B3613"/>
<path d="M351.102 132.412C353.566 136.968 354.475 141.703 355.602 146.725C355.814 147.63 356.027 148.536 356.246 149.469C359.192 162.454 360.472 175.294 360.414 188.6C360.412 189.27 360.411 189.94 360.409 190.631C360.357 202.108 359.589 213.195 357.102 224.412C356.852 225.544 356.852 225.544 356.598 226.7C350.284 254.17 336.257 279.905 312.102 295.412C302.025 301.223 290.077 307.526 278.102 306.412C268.258 287.775 264.673 266.944 270.711 246.432C277.925 224.406 293.166 206.15 313.742 195.467C334.087 185.412 334.087 185.412 343.102 185.412C347.993 168.082 350.29 150.383 351.102 132.412Z" fill="#0B3713"/>
<path d="M82.1018 194.412C98.6969 199.432 112.115 213.173 120.402 227.991C123.697 234.207 125.964 240.716 128.102 247.412C128.452 248.393 128.803 249.374 129.164 250.385C135.77 271.714 131.27 293.792 125.188 314.584C124.829 315.847 124.471 317.111 124.102 318.412C123.828 319.3 123.555 320.188 123.274 321.104C122.836 326.984 128.783 332.819 132.328 337.104C134.538 339.59 136.804 342.007 139.102 344.412C139.63 345.015 140.159 345.619 140.703 346.24C152.062 358.706 169.478 366.754 185.102 372.412C171.306 377.011 145.666 364.59 132.975 358.37C119.975 351.608 108.183 341.91 99.1018 330.412C98.2626 329.398 97.4234 328.383 96.5588 327.338C89.8761 319.169 84.1316 310.691 79.1018 301.412C78.7769 300.813 78.4521 300.214 78.1174 299.597C65.4655 275.726 61.8135 246.321 69.5031 220.308C72.4569 210.955 76.9768 202.742 82.1018 194.412Z" fill="#0C3713"/>
<path d="M246.977 306.849C248.7 308.354 250.409 309.874 252.102 311.412C253.343 312.493 253.343 312.493 254.61 313.595C260.201 318.512 265.456 323.707 270.656 329.029C274.678 333.239 274.678 333.239 280.098 334.592C287.424 333.943 294.348 332.846 301.457 330.935C304.102 330.412 304.102 330.412 307.102 331.412C280.128 351.6 249.703 364.635 215.296 360.037C198.386 357.141 182.945 350.923 170.102 339.412L166.977 337.099C159.721 330.317 154.278 321.38 150.102 312.412V310.412C152.106 308.718 154.094 307.18 156.227 305.662C156.853 305.215 157.478 304.768 158.123 304.308C164.397 299.978 170.939 297.036 178.102 294.412L181.071 293.318C203.628 286.574 228.878 292.232 246.977 306.849Z" fill="#0B3713"/>
<path d="M149.102 98.4121L151.102 99.4121C150.48 99.7984 149.857 100.185 149.216 100.583C138.428 107.286 127.657 114.004 117.039 120.975C109.783 125.727 102.445 130.332 95.0393 134.85C94.1117 135.417 93.1842 135.984 92.2285 136.569C85.9525 140.375 79.5732 143.949 73.1018 147.412V145.412C74.4402 144.15 74.4402 144.15 76.3284 142.725C77.0229 142.196 77.7175 141.667 78.4331 141.123C79.19 140.558 79.9469 139.994 80.7268 139.412C81.5037 138.828 82.2806 138.243 83.0811 137.641C85.4158 135.89 87.7583 134.151 90.1018 132.412C91.021 131.722 91.021 131.722 91.9587 131.017C106.283 120.269 121.621 111.403 137.727 103.6C138.824 103.065 139.922 102.531 141.052 101.981C142.071 101.498 143.091 101.015 144.141 100.518C145.505 99.8702 145.505 99.8702 146.897 99.2097C147.625 98.9465 148.352 98.6833 149.102 98.4121Z" fill="#ECECC3"/>
<path d="M229.102 69.4121C233.508 70.8834 236.828 73.2965 240.414 76.1621C241.56 77.0637 242.706 77.9648 243.852 78.8652C244.405 79.3016 244.958 79.7379 245.528 80.1875C248.23 82.2896 251.017 84.2755 253.809 86.2559C254.236 86.6374 254.662 87.019 255.102 87.4121V89.4121C255.673 89.6583 256.243 89.9045 256.831 90.1582C259.48 91.6211 261.287 93.3386 263.43 95.4746C264.229 96.2712 265.028 97.0679 265.852 97.8887C266.677 98.7214 267.502 99.5541 268.352 100.412C269.625 101.674 269.625 101.674 270.899 102.936C271.693 103.732 272.487 104.529 273.305 105.35C274.034 106.081 274.762 106.811 275.513 107.564C277.102 109.412 277.102 109.412 277.102 111.412H279.102C280.972 113.606 282.736 115.807 284.477 118.1C285.443 119.354 286.409 120.608 287.375 121.861C287.836 122.464 288.298 123.066 288.773 123.687C290.519 125.953 292.305 128.186 294.102 130.412L293.102 132.412C292.363 131.601 291.625 130.79 290.864 129.955C282.277 120.567 273.62 111.293 263.93 103.021C261.494 100.877 259.247 98.5692 256.974 96.2539C255.174 94.4828 253.32 92.8251 251.406 91.1777C247.095 87.428 242.898 83.5671 238.727 79.6621C237.661 78.674 237.661 78.674 236.574 77.666C235.895 77.0305 235.216 76.395 234.516 75.7402C233.907 75.1721 233.298 74.6039 232.671 74.0186C231.102 72.4121 231.102 72.4121 229.102 69.4121Z" fill="#EEEDC8"/>
<path d="M338.102 211.412C339.102 214.412 339.102 214.412 338.38 216.427C337.984 217.189 337.588 217.951 337.18 218.736C336.737 219.592 336.295 220.447 335.839 221.329C335.348 222.243 334.857 223.158 334.352 224.1L332.828 226.962C328.164 235.563 322.951 243.579 317.102 251.412C316.228 252.584 316.228 252.584 315.336 253.78C313.479 256.251 311.608 258.71 309.727 261.162C309.144 261.925 308.561 262.689 307.96 263.475C304.966 267.313 302.106 270.563 298.102 273.412C299.56 269.162 301.809 265.848 304.477 262.287C310.818 253.624 316.431 244.521 322.102 235.412C326.123 228.993 330.238 222.685 334.621 216.506C335.809 214.827 336.961 213.123 338.102 211.412Z" fill="#EBEBC7"/>
<path d="M89.1018 234.412C90.8988 237.108 91.5562 238.603 92.3284 241.639C92.5514 242.493 92.7744 243.347 93.0042 244.226C93.3619 245.618 93.3619 245.618 93.7268 247.037C95.9339 255.4 98.404 263.632 101.102 271.85C103.856 280.293 106.397 288.762 108.664 297.35C108.928 298.333 109.192 299.317 109.463 300.33C109.696 301.232 109.929 302.135 110.168 303.064C110.477 304.255 110.477 304.255 110.792 305.47C111.102 307.412 111.102 307.412 110.102 309.412C102.414 291.893 96.2988 274.075 92.1018 255.412C91.7797 254.041 91.4568 252.67 91.1331 251.299C89.8132 245.512 88.9597 240.373 89.1018 234.412Z" fill="#E4E5C0"/>
<path d="M183.102 320.412C189.531 321.773 195.801 323.428 202.102 325.287C210.029 327.59 217.971 329.643 226.02 331.471C231.547 332.728 237.029 334.16 242.516 335.58C246.056 336.401 249.501 336.954 253.102 337.412V338.412C245.268 338.682 237.813 337.742 230.102 336.412C229.046 336.235 229.046 336.235 227.968 336.054C212.496 333.376 197.02 328.797 183.102 321.412V320.412Z" fill="#E5E7C4"/>
</svg>
